<svg width="160" height="64" viewBox="0 0 160 64" fill="none" xmlns="http://www.w3.org/2000/svg">
<path d="M64.3023 45H59.2917V16.6453H64.3023V45ZM82.0947 27.8706V25.5789H87.1054V45H82.0947V42.7083C80.5928 44.5986 78.4824 45.5438 75.7635 45.5438C73.174 45.5438 70.947 44.5598 69.0826 42.5918C67.2441 40.5979 66.3248 38.1638 66.3248 35.2895C66.3248 32.4411 67.2441 30.0199 69.0826 28.026C70.947 26.0321 73.174 25.0352 75.7635 25.0352C78.4824 25.0352 80.5928 25.9803 82.0947 27.8706ZM72.8503 39.2514C73.8602 40.2613 75.142 40.7662 76.6957 40.7662C78.2494 40.7662 79.5312 40.2613 80.541 39.2514C81.5768 38.2156 82.0947 36.8949 82.0947 35.2895C82.0947 33.684 81.5768 32.3763 80.541 31.3664C79.5312 30.3306 78.2494 29.8127 76.6957 29.8127C75.142 29.8127 73.8602 30.3306 72.8503 31.3664C71.8404 32.3763 71.3355 33.684 71.3355 35.2895C71.3355 36.8949 71.8404 38.2156 72.8503 39.2514ZM95.1059 25.5789V28.9194C95.5461 27.7023 96.2971 26.7831 97.3588 26.1616C98.4205 25.5142 99.6375 25.1905 101.01 25.1905V30.7838C99.4821 30.5766 98.1097 30.8874 96.8927 31.716C95.7015 32.5187 95.1059 33.8523 95.1059 35.7167V45H90.0953V25.5789H95.1059ZM104.873 23.2484C104.044 23.2484 103.319 22.9506 102.697 22.3551C102.102 21.7336 101.804 21.0085 101.804 20.1799C101.804 19.3513 102.102 18.6262 102.697 18.0047C103.319 17.3833 104.044 17.0725 104.873 17.0725C105.727 17.0725 106.452 17.3833 107.048 18.0047C107.669 18.6262 107.98 19.3513 107.98 20.1799C107.98 21.0085 107.669 21.7336 107.048 22.3551C106.452 22.9506 105.727 23.2484 104.873 23.2484ZM107.397 45H102.387V25.5789H107.397V45ZM121.539 25.5789V30.3954H117.149V38.4745C117.149 39.1478 117.318 39.6398 117.654 39.9505C117.991 40.2613 118.483 40.4425 119.13 40.4943C119.778 40.5202 120.58 40.5073 121.539 40.4555V45C118.146 45.3884 115.725 45.0777 114.275 44.0678C112.851 43.032 112.139 41.1676 112.139 38.4745V30.3954H108.76V25.5789H112.139V21.6559L117.149 20.1411V25.5789H121.539ZM132.286 38.6299L136.597 25.5789H141.958L134.888 45C133.879 47.7966 132.532 49.8164 130.849 51.0594C129.192 52.3282 127.12 52.8979 124.634 52.7684V48.1074C125.955 48.1333 127.016 47.8484 127.819 47.2528C128.622 46.6573 129.256 45.6992 129.722 44.3785L121.76 25.5789H127.237L132.286 38.6299Z" fill="white"/>
<path d="M57.56 21.52H41.912V28.24C43.304 27.328 44.936 26.8 47.096 26.8C52.088 26.8 55.256 29.92 55.256 35.056C55.256 38.176 54.2 41.2 51.512 44.608L45.704 41.392C47.432 39.376 48.584 37.408 48.584 35.152C48.584 33.136 47.576 32.128 45.848 32.128C44.264 32.128 42.728 33.136 41.912 34.48V46H35.192V39.904C33.368 41.056 31.112 41.632 28.664 41.632C22.76 41.632 18.68 38.56 18.68 32.944C18.68 27.52 22.472 24.448 29.048 24.448C30.68 24.448 32.312 24.592 33.752 24.88L33.176 30.208C32.216 29.968 31.064 29.824 29.864 29.824C26.984 29.824 25.4 31.024 25.4 33.136C25.4 35.2 26.936 36.256 29.192 36.256C31.688 36.256 33.896 34.816 35.192 33.136V21.52H17V16.144H57.56V21.52Z" fill="white"/>
</svg>
