<svg width="64" height="64" viewBox="0 0 64 64" fill="none" xmlns="http://www.w3.org/2000/svg">
<path d="M54.432 23.768H38.784V28.904C40.224 28.184 41.664 27.8 43.68 27.8C48.96 27.8 52.416 31.016 52.416 36.392C52.416 39.368 51.504 42.392 48.864 46.04L41.52 42.056C43.008 40.136 43.92 38.456 43.92 36.632C43.92 35.096 43.152 34.376 41.904 34.376C40.608 34.376 39.408 35.144 38.784 36.008V47H30.288V42.104C28.416 43.016 26.256 43.496 23.952 43.496C17.424 43.496 13.344 40.184 13.344 34.52C13.344 28.952 17.232 25.88 24 25.88C25.68 25.88 27.36 26.024 28.992 26.312L28.272 32.792C27.36 32.6 26.352 32.504 25.296 32.504C23.088 32.504 21.84 33.32 21.84 34.712C21.84 36.104 22.944 36.824 24.816 36.824C27.024 36.824 28.992 35.576 30.288 34.136V23.768H12V17.144H54.432V23.768Z" fill="black"/>
</svg>
